<svg width="429" height="304" viewBox="0 0 429 304" fill="none" xmlns="http://www.w3.org/2000/svg">
<g clip-path="url(#clip0_2_208)">
<path d="M49.0854 279.073H47.8049L39.0124 279.159C39.0124 279.159 37.1343 287.791 36.1953 291.381C36.11 291.637 35.9392 292.236 35.8539 292.663C35.6831 293.261 35.6831 293.945 35.6831 294.543C35.8539 297.791 37.1343 300.612 40.0367 302.065C43.2806 303.689 45.7562 305.227 49.0854 302.065C52.4146 298.902 52.9268 296.937 51.6463 291.552C50.3659 286.167 49.9391 279.244 49.0854 279.073Z" fill="#4B49BB"/>
<path d="M84.3411 290.013C78.5362 288.133 74.6948 280.27 74.6948 280.27L64.7925 279.671C64.7925 279.671 64.2803 287.706 64.0242 291.723C63.6828 297.108 64.6218 299.586 68.1217 299.244C72.8168 298.817 91.8531 300.612 94.8409 298.646C98.6823 296.167 89.719 291.723 84.3411 290.013Z" fill="#4B49BB"/>
<path d="M85.9582 203.738C86.3854 207.756 83.3955 228.959 83.3955 232.978C83.3955 236.996 74.5113 280 74.5113 280L64.3457 279.658C64.3457 279.658 66.6522 216.135 66.3959 213.057C66.1396 209.979 53.4113 173.131 53.4113 173.131C53.4113 173.131 52.4716 182.877 52.4716 185.955C52.4716 189.033 49.0546 278.803 49.0546 278.803H38.8891L24.3668 146.285L23 135L77.9283 136.368C77.9283 136.368 85.4457 199.634 85.9582 203.738Z" fill="url(#paint0_linear_2_208)"/>
<path d="M92.6879 109.534L88.0966 113.456L89.542 119.597L91.4976 122.325C91.3275 122.581 90.9024 120.961 92.943 122.155L96.9391 121.899L100 117.891C100 117.891 98.3845 99.3854 91.2425 86.5083L92.6879 109.534ZM87.0763 85.0586L86.6512 82.5002L85.5459 82.3296L87.0763 85.0586ZM48.5604 16.9206C51.1111 15.812 60.9739 11.1217 62.4193 12.145C64.63 14.0211 66.2454 16.4942 66.9256 19.3084C67.3507 21.2699 68.8812 23.6577 69.1362 23.3165C70.2415 22.2079 69.9865 26.3866 69.9865 27.6658C69.6464 29.4566 68.8812 31.2475 67.6058 32.612C66.7556 33.2942 65.9053 35.5967 65.4802 37.3876C65.0551 39.349 64.2048 43.2718 64.97 44.8921C65.8203 46.8536 76.1932 65.7002 85.4609 82.4149L33.5111 73.0342L17.1014 107.828L24.4986 113.798L22.3729 120.876L21.0126 121.132C21.0126 121.132 19.8222 123.946 18.5469 122.667C17.5266 121.643 15.9961 122.155 15.401 122.411C15.2309 122.496 14.9758 122.496 14.8058 122.496L13.1053 122.155L12 112.774L27.9845 63.3977C27.9845 63.3977 47.2 46.086 48.3053 45.4038C49.4106 44.7216 49.7507 40.1165 48.7304 37.8993C47.6251 35.682 46.4348 33.55 45.0744 31.4181C44.2242 30.1389 43.2039 25.278 43.2039 23.146C43.2039 21.014 44.4792 21.7815 44.4792 21.7815C44.4792 21.7815 45.6696 17.6029 48.2203 16.4942C49.1556 15.8973 62.4193 12.145 62.4193 12.145" fill="url(#paint1_linear_2_208)"/>
<path d="M28.1611 52.6244C25.5945 54.3288 23.2846 56.6297 22.4291 59.6123C21.5735 62.5949 7.02958 90.4613 6.34515 92.5066C5.66073 94.5518 2.92305 102.562 4.463 111.255C6.00294 119.947 12.5905 121.992 13.7027 121.992C14.3016 121.992 13.1894 117.476 12.9327 114.493C12.8472 113.385 13.7882 110.658 14.0449 109.55C14.4727 107.931 15.8415 108.357 15.8415 106.908C15.8415 104.181 22.6857 94.7222 25.2523 89.4387C27.8189 84.1552 32.6098 83.2178 33.4653 80.9169C34.3209 78.616 26.2789 128.298 26.2789 128.298C26.2789 128.298 26.1078 136.991 27.7333 137.843C29.2733 138.61 47.6671 145.598 51.9447 147.217C52.3725 147.387 52.8858 147.131 53.1425 146.705L55.8801 138.951C55.8801 138.865 55.9657 138.78 56.0513 138.865C56.1368 138.865 56.1368 138.951 56.1368 138.951L58.7034 147.387C58.7889 147.813 59.3022 148.069 59.73 147.984L82.4015 143.126C82.4015 143.126 82.0593 101.454 82.487 94.4666C82.8292 87.6491 81.9737 83.8143 83.257 85.6891C84.6258 87.7343 95.9188 98.8979 95.9188 102.051C95.8332 103.841 96.6888 105.46 98.1432 106.482L97.5443 121.822C97.5443 121.822 103.961 114.749 104.56 110.743C105.158 106.738 105.415 104.608 103.533 100.602C101.651 96.597 91.2134 60.2088 91.2134 60.2088C91.2134 60.2088 90.1868 55.7775 82.487 53.4766C74.7873 51.1757 69.0553 47.767 67.6864 47.8522C66.3176 47.9374 62.0399 55.9479 60.1578 58.2488C59.3022 59.2714 59.4734 59.7827 58.3612 61.3167C57.7623 62.0836 56.6501 62.2541 55.8801 61.6575C55.709 61.4871 55.5379 61.4019 55.4524 61.1462C54.8535 60.2088 54.3402 59.2714 53.8269 58.334C52.9714 56.6297 46.3838 47 46.3838 47C46.3838 47 30.7277 50.92 28.1611 52.6244Z" fill="url(#paint2_linear_2_208)"/>
<path d="M62.738 12.1907C62.738 12.1907 49.2923 16.7395 46.8634 18.9264C45.302 20.326 44.4345 22.0755 44.4345 22.0755C44.4345 22.0755 43.1333 21.5507 43.1333 23.4751C43.1333 23.4751 42.6128 22.163 42.1791 21.3757C41.7454 20.5884 40.0972 16.3896 41.6586 13.0654C43.22 9.74134 45.1285 7.81686 45.9092 7.292C46.6899 6.76714 51.2007 2.83071 55.6248 3.00566C60.0489 3.18061 62.9115 6.24229 63.6922 6.9421C64.5597 7.64191 66.1211 8.95406 67.1621 9.21648C68.203 9.56639 70.8054 13.0654 70.9789 15.6897C71.1524 18.314 70.1982 24 70.1982 24C70.1982 24 70.1115 23.2127 69.591 23.6501C69.0705 24.0875 67.5958 21.2882 67.1621 19.2763C66.7283 17.2643 62.738 12.1907 62.738 12.1907Z" fill="url(#paint3_linear_2_208)"/>
<g opacity="0.07">
<path d="M66.7559 48.0446C66.6705 47.7881 68.2925 48.9847 66.4145 47.6172C63.7682 45.7368 64.9633 37.7025 64.9633 37.7025C64.0242 39.7539 62.3169 41.3778 60.1828 42.2325C56.7682 43.5146 55.7439 42.5744 60.9511 45.5659C66.1584 48.5574 63.4267 49.583 63.0852 53.5147" fill="white"/>
</g>
<g opacity="0.07">
<path d="M33.2076 85.8228L26.0369 129.413C26.0369 129.413 26.1223 137.191 27.4881 138.302C28.854 139.413 33.4637 140.182 34.488 140.952C35.5124 141.721 46.6098 145.396 43.7074 139.157C43.0245 137.789 28.0857 129.413 34.8295 120.61C41.5733 111.806 40.2928 99.6692 37.1343 91.2075C35.2563 86.2502 34.3173 80.951 34.5734 75.6518L33.2076 85.8228Z" fill="black"/>
</g>
<path opacity="0.07" d="M45 144.248C45 144.248 39.0178 176.72 42.1353 189.691C46.8536 209.364 40.0289 235.994 40.0289 248.794C40.0289 257.041 43.2306 280.063 43.3991 289.341C43.4834 292.176 45.4213 297.588 43.9889 298.877C43.3149 299.392 39.5233 298.189 37.4169 297.159C36.3216 296.643 35.6476 295.44 35.8161 294.238L37.0799 288.654L38.8493 281.352L26.4636 162.545C26.4636 162.545 22.4193 136.087 24.6942 136.001C26.9692 135.915 45 144.248 45 144.248Z" fill="black"/>
<path d="M34 84.9452L54.125 79L55 134.205L36.625 141L34 84.9452Z" fill="white"/>
<path d="M54 79L77 85.8889V141L54.8519 134.972L54 79Z" fill="white"/>
<path d="M77 85.8889L99 79L95.9538 108.106L90.5385 112.153C89.9462 112.583 89.6077 113.186 89.5231 113.875L89.3538 114.908C89.2692 115.425 89.3538 115.942 89.5231 116.458L90.4538 118.783C90.7923 119.558 91.3 120.247 92.0615 120.678L95.1923 122.4L95.0231 134.197L77 141V85.8889Z" fill="#E1E6FC"/>
<path d="M34.4468 84.6585L13 78L15.9787 107.28L21.3404 111.378C21.8511 111.805 22.2766 112.402 22.3617 113.085L22.5319 114.11C22.617 114.622 22.5319 115.22 22.3617 115.646L21.5106 118.037C21.1702 118.805 20.6596 119.488 19.8936 119.915L16.8298 121.622L17 134L37 141L34.4468 84.6585Z" fill="#E1E6FC"/>
<path d="M53 79.1718L53.4762 79L53.8571 79.0859L55 135L54.4286 134.828L53.7619 135L53 79.1718Z" fill="#E1E6FC"/>
</g>
<g clip-path="url(#clip1_2_208)">
<path d="M244.557 20.6413C212.296 53.0894 196.388 30.5419 175.987 62.2381C162.786 82.7326 155.06 110.719 163.599 147.999C186.796 249.234 184.992 238.908 216.053 259.561C247.114 280.214 238.511 314.145 280.798 299.393C323.085 284.64 375.278 318.574 390.94 263.497C406.601 208.419 366.006 159.623 395.58 129.19C425.154 98.7569 411.323 4.60817 331.278 1.65648C286.75 0.0146942 270.693 -5.65079 244.557 20.6413Z" fill="#F8F8FF"/>
<path d="M238.091 57.4949C201.425 79.6722 183.346 64.25 160.158 85.931C145.169 99.9405 136.375 119.075 146.078 144.554C172.446 213.764 170.396 206.695 205.696 220.822C240.995 234.949 231.216 258.139 279.282 248.054C327.347 237.968 386.669 261.165 404.465 223.512C422.262 185.86 376.123 152.501 409.745 131.695C443.367 110.89 427.639 46.5222 336.673 44.5074C286.046 43.3972 267.797 39.5204 238.091 57.4949Z" fill="#F8F8FF"/>
<path d="M216.889 83.1937V179.234H361.797L361.943 79.2287L216.889 79.0818V83.1937Z" fill="#E1E6FB"/>
<path d="M206.036 91.711V187.751H350.943L351.09 87.746L206.036 87.5992V91.711Z" fill="#EAEDFB"/>
<path d="M214.689 97.585C214.689 96.3684 213.704 95.3822 212.489 95.3822C211.274 95.3822 210.289 96.3684 210.289 97.585C210.289 98.8015 211.274 99.7877 212.489 99.7877C213.704 99.7877 214.689 98.8015 214.689 97.585Z" fill="#BAC5F4"/>
<path d="M221.436 97.585C221.436 96.3684 220.451 95.3822 219.236 95.3822C218.021 95.3822 217.036 96.3684 217.036 97.585C217.036 98.8015 218.021 99.7877 219.236 99.7877C220.451 99.7877 221.436 98.8015 221.436 97.585Z" fill="#BAC5F4"/>
<path d="M228.183 97.585C228.183 96.3684 227.198 95.3822 225.983 95.3822C224.768 95.3822 223.783 96.3684 223.783 97.585C223.783 98.8015 224.768 99.7877 225.983 99.7877C227.198 99.7877 228.183 98.8015 228.183 97.585Z" fill="#BAC5F4"/>
<g opacity="0.5">
<path d="M214.396 109.774H213.809V139.731H214.396V109.774Z" fill="white"/>
<path d="M217.036 109.774H216.449V139.731H217.036V109.774Z" fill="white"/>
<path d="M219.383 109.774H218.796V139.731H219.383V109.774Z" fill="white"/>
<path d="M222.023 109.774H221.436V139.731H222.023V109.774Z" fill="white"/>
<path d="M224.369 109.774H223.783V139.731H224.369V109.774Z" fill="white"/>
<path d="M227.009 109.774H226.423V139.731H227.009V109.774Z" fill="white"/>
<path d="M229.356 109.774H228.769V139.731H229.356V109.774Z" fill="white"/>
<path d="M231.703 109.774H231.116V139.731H231.703V109.774Z" fill="white"/>
<path d="M234.049 109.774H233.463V139.731H234.049V109.774Z" fill="white"/>
<path d="M236.689 109.774H236.103V139.731H236.689V109.774Z" fill="white"/>
<path d="M239.036 109.774H238.449V139.731H239.036V109.774Z" fill="white"/>
<path d="M241.676 109.774H241.089V139.731H241.676V109.774Z" fill="white"/>
<path d="M244.023 109.774H243.436V139.731H244.023V109.774Z" fill="white"/>
<path d="M244.023 109.774H213.809V110.36H244.023V109.774Z" fill="white"/>
<path d="M244.023 112.711H213.809V113.297H244.023V112.711Z" fill="white"/>
<path d="M244.023 115.648H213.809V116.234H244.023V115.648Z" fill="white"/>
<path d="M244.023 118.585H213.809V119.171H244.023V118.585Z" fill="white"/>
<path d="M244.023 121.522H213.809V122.108H244.023V121.522Z" fill="white"/>
<path d="M244.023 124.459H213.809V125.045H244.023V124.459Z" fill="white"/>
<path d="M244.023 127.396H213.809V127.982H244.023V127.396Z" fill="white"/>
<path d="M244.023 130.333H213.809V130.919H244.023V130.333Z" fill="white"/>
<path d="M244.023 133.27H213.809V133.856H244.023V133.27Z" fill="white"/>
<path d="M244.023 136.207H213.809V136.793H244.023V136.207Z" fill="white"/>
<path d="M244.023 139.144H213.809V139.73H244.023V139.144Z" fill="white"/>
<path d="M251.356 147.367H250.769V177.325H251.356V147.367Z" fill="white"/>
<path d="M253.996 147.367H253.409V177.325H253.996V147.367Z" fill="white"/>
<path d="M256.343 147.367H255.756V177.325H256.343V147.367Z" fill="white"/>
<path d="M258.983 147.367H258.396V177.325H258.983V147.367Z" fill="white"/>
<path d="M261.329 147.367H260.743V177.325H261.329V147.367Z" fill="white"/>
<path d="M263.969 147.367H263.383V177.325H263.969V147.367Z" fill="white"/>
<path d="M266.316 147.367H265.729V177.325H266.316V147.367Z" fill="white"/>
<path d="M268.663 147.367H268.076V177.325H268.663V147.367Z" fill="white"/>
<path d="M271.01 147.367H270.423V177.325H271.01V147.367Z" fill="white"/>
<path d="M273.65 147.367H273.063V177.325H273.65V147.367Z" fill="white"/>
<path d="M275.996 147.367H275.41V177.325H275.996V147.367Z" fill="white"/>
<path d="M278.636 147.367H278.05V177.325H278.636V147.367Z" fill="white"/>
<path d="M280.983 147.367H280.396V177.325H280.983V147.367Z" fill="white"/>
<path d="M280.983 147.367H250.769V147.954H280.983V147.367Z" fill="white"/>
<path d="M280.983 150.304H250.769V150.891H280.983V150.304Z" fill="white"/>
<path d="M280.983 153.241H250.769V153.828H280.983V153.241Z" fill="white"/>
<path d="M280.983 156.178H250.769V156.765H280.983V156.178Z" fill="white"/>
<path d="M280.983 159.115H250.769V159.702H280.983V159.115Z" fill="white"/>
<path d="M280.983 162.052H250.769V162.639H280.983V162.052Z" fill="white"/>
<path d="M280.983 164.989H250.769V165.576H280.983V164.989Z" fill="white"/>
<path d="M280.983 167.926H250.769V168.513H280.983V167.926Z" fill="white"/>
<path d="M280.983 170.863H250.769V171.45H280.983V170.863Z" fill="white"/>
<path d="M280.983 173.8H250.769V174.387H280.983V173.8Z" fill="white"/>
<path d="M280.983 176.737H250.769V177.324H280.983V176.737Z" fill="white"/>
<path d="M284.503 113.004H283.916V142.962H284.503V113.004Z" fill="white"/>
<path d="M287.143 113.004H286.556V142.962H287.143V113.004Z" fill="white"/>
<path d="M289.49 113.004H288.903V142.962H289.49V113.004Z" fill="white"/>
<path d="M292.13 113.004H291.543V142.962H292.13V113.004Z" fill="white"/>
<path d="M294.476 113.004H293.89V142.962H294.476V113.004Z" fill="white"/>
<path d="M297.116 113.004H296.53V142.962H297.116V113.004Z" fill="white"/>
<path d="M299.463 113.004H298.876V142.962H299.463V113.004Z" fill="white"/>
<path d="M301.81 113.004H301.223V142.962H301.81V113.004Z" fill="white"/>
<path d="M304.156 113.004H303.57V142.962H304.156V113.004Z" fill="white"/>
<path d="M306.796 113.004H306.21V142.962H306.796V113.004Z" fill="white"/>
<path d="M309.143 113.004H308.556V142.962H309.143V113.004Z" fill="white"/>
<path d="M311.783 113.004H311.196V142.962H311.783V113.004Z" fill="white"/>
<path d="M314.13 113.004H313.543V142.962H314.13V113.004Z" fill="white"/>
<path d="M314.13 113.004H283.916V113.591H314.13V113.004Z" fill="white"/>
<path d="M314.13 115.941H283.916V116.528H314.13V115.941Z" fill="white"/>
<path d="M314.13 118.878H283.916V119.465H314.13V118.878Z" fill="white"/>
<path d="M314.13 121.815H283.916V122.402H314.13V121.815Z" fill="white"/>
<path d="M314.13 124.752H283.916V125.339H314.13V124.752Z" fill="white"/>
<path d="M314.13 127.689H283.916V128.276H314.13V127.689Z" fill="white"/>
<path d="M314.13 130.626H283.916V131.213H314.13V130.626Z" fill="white"/>
<path d="M314.13 133.563H283.916V134.15H314.13V133.563Z" fill="white"/>
<path d="M314.13 136.5H283.916V137.087H314.13V136.5Z" fill="white"/>
<path d="M314.13 139.437H283.916V140.024H314.13V139.437Z" fill="white"/>
<path d="M314.13 142.374H283.916V142.961H314.13V142.374Z" fill="white"/>
</g>
<path d="M271.303 119.172H228.183V149.129H271.303V119.172Z" fill="#BAC5F4"/>
<path d="M275.703 122.99H232.583V152.948H275.703V122.99Z" fill="#E1E6FB"/>
<path d="M266.023 127.102H241.383V127.689H266.023V127.102Z" fill="white"/>
<path d="M261.623 128.57H241.383V129.157H261.623V128.57Z" fill="white"/>
<path d="M268.076 129.745H241.383V130.332H268.076V129.745Z" fill="white"/>
<path d="M253.116 133.563H241.383V134.15H253.116V133.563Z" fill="white"/>
<path d="M259.276 135.032H241.383V135.619H259.276V135.032Z" fill="white"/>
<path d="M258.103 136.207H241.383V136.793H258.103V136.207Z" fill="white"/>
<path d="M253.116 140.318H241.383V140.905H253.116V140.318Z" fill="white"/>
<path d="M259.276 141.787H241.383V142.374H259.276V141.787Z" fill="white"/>
<path d="M258.103 142.962H241.383V143.548H258.103V142.962Z" fill="white"/>
<path d="M237.716 130.626C238.769 130.626 239.623 129.772 239.623 128.717C239.623 127.663 238.769 126.808 237.716 126.808C236.663 126.808 235.809 127.663 235.809 128.717C235.809 129.772 236.663 130.626 237.716 130.626Z" fill="white"/>
<path d="M237.716 136.794C238.769 136.794 239.623 135.939 239.623 134.885C239.623 133.831 238.769 132.976 237.716 132.976C236.663 132.976 235.809 133.831 235.809 134.885C235.809 135.939 236.663 136.794 237.716 136.794Z" fill="white"/>
<path d="M238.009 143.843C239.062 143.843 239.916 142.988 239.916 141.934C239.916 140.879 239.062 140.025 238.009 140.025C236.956 140.025 236.103 140.879 236.103 141.934C236.103 142.988 236.956 143.843 238.009 143.843Z" fill="white"/>
<path d="M341.997 122.99H320.583V123.577H341.997V122.99Z" fill="white"/>
<path d="M341.997 126.221H320.583V126.807H341.997V126.221Z" fill="white"/>
<path d="M341.997 129.452H320.583V130.038H341.997V129.452Z" fill="white"/>
<path d="M341.997 132.682H320.583V133.269H341.997V132.682Z" fill="white"/>
<path d="M341.997 135.913H320.583V136.5H341.997V135.913Z" fill="white"/>
<path d="M341.997 139.144H320.583V139.73H341.997V139.144Z" fill="white"/>
<path d="M341.997 142.374H320.583V142.961H341.997V142.374Z" fill="white"/>
<path d="M341.997 145.605H320.583V146.192H341.997V145.605Z" fill="white"/>
<path d="M341.997 148.836H320.583V149.422H341.997V148.836Z" fill="white"/>
<path d="M343.757 102.137H209.409V102.724H343.757V102.137Z" fill="white"/>
<path d="M331.29 119.466C334.935 119.466 337.89 116.507 337.89 112.857C337.89 109.208 334.935 106.249 331.29 106.249C327.645 106.249 324.69 109.208 324.69 112.857C324.69 116.507 327.645 119.466 331.29 119.466Z" fill="white"/>
<path d="M340.237 85.6901V79.8161C340.237 79.8161 340.823 78.3476 338.183 77.1728C335.543 75.998 330.85 71.2988 331.143 63.3689C331.437 55.439 338.77 48.3901 346.983 48.9775C355.197 49.5649 361.063 56.0264 361.357 64.8374C361.65 73.6484 353.73 77.1728 353.73 77.1728C353.73 77.1728 352.263 77.4665 352.263 78.935V85.6901H340.237Z" fill="#BAC5F4"/>
<path d="M327.366 52.7335L327.051 53.2287L331.997 56.3882L332.312 55.8931L327.366 52.7335Z" fill="#BAC5F4"/>
<path d="M340.792 42.8285L340.218 42.9508L341.44 48.696L342.014 48.5737L340.792 42.8285Z" fill="#BAC5F4"/>
<path d="M357.59 45.1842L357.094 44.8714L353.969 49.843L354.466 50.1558L357.59 45.1842Z" fill="#BAC5F4"/>
<path d="M367.443 58.3357L367.262 57.7777L361.684 59.5956L361.865 60.1535L367.443 58.3357Z" fill="#BAC5F4"/>
<path d="M365.168 75.4685L365.478 74.97L360.5 71.8625L360.189 72.361L365.168 75.4685Z" fill="#BAC5F4"/>
<path d="M334.611 83.0246L335.107 83.3377L338.234 78.3677L337.738 78.0546L334.611 83.0246Z" fill="#BAC5F4"/>
<path d="M324.975 69.9153L325.108 70.4867L330.821 69.1524L330.688 68.581L324.975 69.9153Z" fill="#BAC5F4"/>
<path d="M352.41 85.6901H340.09C339.523 85.6901 339.063 86.1504 339.063 86.7181C339.063 87.2858 339.523 87.746 340.09 87.746H352.41C352.977 87.746 353.437 87.2858 353.437 86.7181C353.437 86.1504 352.977 85.6901 352.41 85.6901Z" fill="#BAC5F4"/>
<path d="M352.117 89.5082H340.383C339.816 89.5082 339.357 89.9685 339.357 90.5362C339.357 91.1039 339.816 91.5641 340.383 91.5641H352.117C352.684 91.5641 353.143 91.1039 353.143 90.5362C353.143 89.9685 352.684 89.5082 352.117 89.5082Z" fill="#BAC5F4"/>
<path d="M352.263 87.746H340.237C339.751 87.746 339.357 88.1405 339.357 88.6272C339.357 89.1138 339.751 89.5083 340.237 89.5083H352.263C352.749 89.5083 353.143 89.1138 353.143 88.6272C353.143 88.1405 352.749 87.746 352.263 87.746Z" fill="white"/>
<path d="M340.823 91.5641H351.6C351.6 91.5641 351.383 95.0886 346.397 95.0886C341.41 95.0886 341.703 93.0327 340.823 91.5641Z" fill="white"/>
<path d="M350.365 128.277H384.853C385.005 128.277 385.155 128.309 385.294 128.371C385.433 128.433 385.557 128.523 385.659 128.637C385.761 128.75 385.837 128.884 385.884 129.028C385.93 129.173 385.946 129.327 385.929 129.478L383.527 151.394C383.497 151.659 383.371 151.904 383.173 152.083C382.974 152.261 382.717 152.36 382.45 152.36H347.963C347.811 152.36 347.661 152.328 347.522 152.266C347.383 152.204 347.258 152.114 347.157 152C347.055 151.887 346.979 151.753 346.932 151.608C346.886 151.463 346.87 151.31 346.887 151.159L349.289 129.243C349.318 128.977 349.444 128.732 349.642 128.554C349.841 128.375 350.099 128.277 350.365 128.277V128.277Z" fill="#E1E6FB"/>
<path d="M348.019 128.277H382.506C382.658 128.277 382.809 128.309 382.948 128.371C383.086 128.433 383.211 128.523 383.312 128.637C383.414 128.75 383.49 128.884 383.537 129.028C383.584 129.173 383.599 129.327 383.583 129.478L381.18 151.394C381.151 151.659 381.025 151.904 380.826 152.083C380.628 152.261 380.37 152.36 380.104 152.36H345.616C345.464 152.36 345.314 152.328 345.175 152.266C345.036 152.204 344.912 152.114 344.81 152C344.709 151.887 344.632 151.753 344.585 151.608C344.539 151.463 344.523 151.31 344.54 151.159L346.942 129.243C346.971 128.977 347.097 128.732 347.296 128.554C347.494 128.375 347.752 128.277 348.019 128.277Z" fill="white"/>
<path d="M347.57 128.374L361.715 141.493L382.958 128.374H347.57Z" fill="#BAC5F4"/>
<path d="M323.209 217.703L281.476 217.562C280.385 217.562 279.502 217.509 279.505 216.416L279.525 210.836C279.525 209.755 280.405 209.914 281.479 209.902L322.942 209.485C323.461 209.514 324.332 209.153 325.766 209.779C327.697 210.607 329.081 215.685 324.969 217.433C324.394 217.59 323.804 217.681 323.209 217.703Z" fill="#BAC5F4"/>
<path d="M280.191 216.41L291.358 216.452C291.54 216.452 291.715 216.379 291.845 216.25C291.974 216.122 292.047 215.947 292.048 215.764V211.341C292.048 211.159 291.975 210.984 291.847 210.854C291.718 210.725 291.543 210.652 291.361 210.651L280.197 210.613C279.968 210.588 279.736 210.599 279.51 210.645L279.505 216.387C279.733 216.41 279.962 216.418 280.191 216.41V216.41Z" fill="white"/>
<path d="M283.905 201.731H325.634C326.726 201.731 327.611 201.778 327.611 202.871V208.451C327.611 209.532 326.731 209.376 325.661 209.391L284.198 209.955C283.682 209.931 282.807 209.717 281.464 209.259C279.475 208.583 278.038 203.787 282.145 202.025C282.718 201.86 283.309 201.761 283.905 201.731Z" fill="#EAEDFB"/>
<path d="M326.925 202.877H315.761C315.578 202.877 315.404 202.949 315.274 203.078C315.145 203.207 315.072 203.381 315.071 203.564V207.99C315.072 208.173 315.145 208.347 315.274 208.476C315.404 208.605 315.578 208.677 315.761 208.677H326.925C327.154 208.7 327.386 208.688 327.611 208.642V202.891C327.383 202.869 327.154 202.864 326.925 202.877Z" fill="#B0C0F4"/>
<path d="M280.373 194.794H322.103C323.197 194.794 324.08 194.838 324.08 195.931V201.511C324.08 202.595 323.2 202.436 322.129 202.451L280.666 203.015C280.15 202.988 279.276 202.774 277.932 202.316C275.943 201.643 274.506 196.847 278.613 195.085C279.186 194.919 279.777 194.821 280.373 194.794V194.794Z" fill="#BAC5F4"/>
<path d="M323.393 195.931H312.229C312.139 195.931 312.049 195.949 311.966 195.983C311.882 196.018 311.806 196.069 311.743 196.133C311.679 196.197 311.628 196.273 311.594 196.357C311.56 196.441 311.542 196.53 311.543 196.621V201.044C311.542 201.134 311.56 201.224 311.594 201.308C311.628 201.391 311.679 201.467 311.743 201.531C311.807 201.595 311.882 201.645 311.966 201.68C312.049 201.714 312.139 201.732 312.229 201.731H323.393C323.622 201.752 323.854 201.742 324.08 201.699V195.951C323.852 195.929 323.622 195.922 323.393 195.931V195.931Z" fill="white"/>
<path d="M203.581 204.146C214.456 204.146 223.272 195.318 223.272 184.429C223.272 173.54 214.456 164.713 203.581 164.713C192.705 164.713 183.889 173.54 183.889 184.429C183.889 195.318 192.705 204.146 203.581 204.146Z" stroke="#E1E6FB" stroke-width="1.17334" stroke-miterlimit="10" stroke-dasharray="3.44 3.44"/>
<path d="M205.965 202.683H201.193C200.59 202.683 200.102 203.172 200.102 203.775C200.102 204.379 200.59 204.868 201.193 204.868H205.965C206.568 204.868 207.057 204.379 207.057 203.775C207.057 203.172 206.568 202.683 205.965 202.683Z" fill="#E1E6FB"/>
<path d="M203.683 201.802C213.323 201.802 221.137 193.978 221.137 184.327C221.137 174.675 213.323 166.851 203.683 166.851C194.044 166.851 186.23 174.675 186.23 184.327C186.23 193.978 194.044 201.802 203.683 201.802Z" fill="#E1E6FB"/>
<path d="M204.387 204.146H202.973V288.191H204.387V204.146Z" fill="#E1E6FB"/>
<path d="M223.748 240.839C229.654 234.925 229.654 225.337 223.748 219.423C217.842 213.51 208.265 213.51 202.359 219.423C196.452 225.337 196.452 234.925 202.359 240.839C208.265 246.753 217.842 246.753 223.748 240.839Z" stroke="#E1E6FB" stroke-width="1.17334" stroke-miterlimit="10" stroke-dasharray="3.39 3.39"/>
<path d="M214.933 244.153H211.175C210.738 244.153 210.383 244.508 210.383 244.946V245.037C210.383 245.475 210.738 245.83 211.175 245.83H214.933C215.37 245.83 215.725 245.475 215.725 245.037V244.946C215.725 244.508 215.37 244.153 214.933 244.153Z" fill="#E1E6FB"/>
<path d="M215.502 288.191H201.093C200.656 288.191 200.301 288.546 200.301 288.984V289.075C200.301 289.513 200.656 289.868 201.093 289.868H215.502C215.939 289.868 216.294 289.513 216.294 289.075V288.984C216.294 288.546 215.939 288.191 215.502 288.191Z" fill="#E1E6FB"/>
<path d="M219.215 289.659H197.083C196.646 289.659 196.291 290.014 196.291 290.452V290.543C196.291 290.981 196.646 291.336 197.083 291.336H219.215C219.653 291.336 220.007 290.981 220.007 290.543V290.452C220.007 290.014 219.653 289.659 219.215 289.659Z" fill="#E1E6FB"/>
<path d="M213.135 243.475C220.538 243.475 226.54 237.466 226.54 230.053C226.54 222.64 220.538 216.631 213.135 216.631C205.731 216.631 199.729 222.64 199.729 230.053C199.729 237.466 205.731 243.475 213.135 243.475Z" fill="#E1E6FB"/>
<path d="M213.795 204.146H212.381V288.191H213.795V204.146Z" fill="#E1E6FB"/>
</g>
<defs>
<linearGradient id="paint0_linear_2_208" x1="23" y1="207.5" x2="86" y2="207.5" gradientUnits="userSpaceOnUse">
<stop stop-color="#4B45BD"/>
<stop offset="1" stop-color="#58CAEA"/>
</linearGradient>
<linearGradient id="paint1_linear_2_208" x1="12" y1="67.5008" x2="100" y2="67.5008" gradientUnits="userSpaceOnUse">
<stop stop-color="#F87B58"/>
<stop offset="0.41" stop-color="#F89453"/>
<stop offset="0.71" stop-color="#F8C548"/>
<stop offset="1" stop-color="#F89C51"/>
</linearGradient>
<linearGradient id="paint2_linear_2_208" x1="3.99999" y1="97.5" x2="105" y2="97.5" gradientUnits="userSpaceOnUse">
<stop stop-color="#E5A4ED"/>
<stop offset="1" stop-color="#7A5BF5"/>
</linearGradient>
<linearGradient id="paint3_linear_2_208" x1="40.9687" y1="13.5215" x2="70.9951" y2="13.5215" gradientUnits="userSpaceOnUse">
<stop stop-color="#4B45BD"/>
<stop offset="1" stop-color="#58CAEA"/>
</linearGradient>
<clipPath id="clip0_2_208">
<rect width="105" height="300.484" fill="white" transform="translate(0 3)"/>
</clipPath>
<clipPath id="clip1_2_208">
<rect width="286.188" height="302.625" fill="white" transform="translate(142)"/>
</clipPath>
</defs>
</svg>
