<svg width="1605" height="243" viewBox="0 0 1605 243" fill="none" xmlns="http://www.w3.org/2000/svg">
<path d="M1169.6 184.8C1161 191.3 1144.5 203.1 1112.5 203.1C1098.2 203.1 1086.4 200.4 1076.6 196.4C1058.5 189.1 1018.9 163.5 1018.9 104.2C1018.9 49.5 1054.2 0.0999756 1120.5 0.0999756C1149.1 0.0999756 1178.5 10.1 1197.3 28.7C1208.6 39.7 1212.4 50 1215.6 58.9L1161.8 74C1160.5 68.1 1159.1 61.6 1153.2 55.7C1147.5 50 1137.8 45.7 1125.2 45.7C1110.9 45.7 1100.9 51.1 1095 56.8C1080.2 70.6 1080.2 93.2 1080.2 101.8C1080.2 113.1 1081 131.5 1094.5 145.2C1106.4 157.6 1120.4 157.9 1126.8 157.9C1132.2 157.9 1145.9 157.4 1155.4 147.7C1160.5 142.3 1161.3 137.2 1162.7 131.3H1127.4V92.9H1214.7V198H1169.7V184.8H1169.6Z" fill="#004CC7"/>
<path d="M1233.2 3.90002H1293.6V122.8C1293.6 130.9 1293.9 139.2 1300.6 145.7C1305.5 150.8 1312.7 152.7 1319.7 152.7C1329.1 152.7 1335.3 149.2 1338.8 146C1345.8 139.3 1346.1 130.9 1346.1 122.8V3.90002H1406.8V105.3C1406.8 127.1 1406.8 155.4 1384.4 176.7C1370.7 189.6 1348.5 199.3 1319.2 199.3C1291.2 199.3 1266.9 190.1 1252.9 176.7C1234 158.4 1233.8 137.1 1233.2 117.1V3.90002Z" fill="#004CC7"/>
<path d="M1465.3 6.5H1533.8L1605 196.8H1540.3L1531.9 170.4H1465.6L1457.2 196.8H1392.5L1465.3 6.5ZM1499.2 60.7L1478.4 127.8H1519.4L1499.2 60.7Z" fill="#004CC7"/>
<path d="M210.6 234.1C213.1 232 214.1 230.2 214.6 229.1C214.6 229.1 214.5 229.1 214.5 229.2C215.3 227.9 214.8 227.1 214.8 227.1C205 232.2 183.1 242.8 102.6 234.3C22.2 225.7 0.8 207.3 0.8 207.3C0.3 208.6 0.1 209.8 0.2 211L0 210.9C0 210.9 0.1 211.2 0.4 211.8C0.5 212.2 0.7 212.6 0.8 213C4.7 215.9 29.1 231.7 102.1 239.4C173.9 247.1 199.1 239.5 210.6 234.1Z" fill="#C9C9C9"/>
<path d="M297.3 6.69995H392.2C410.3 6.69995 427.5 7.79995 439.1 12.6C464.4 23.4 472 49.2999 472 67.5999C472 74.8999 471.2 91.9 457.4 105.9C449.9 114 441.8 117 432.9 120.5L479.3 197.3H412.4L375.5 130.2H357.7V197.3H297.3V6.69995ZM357.7 46.5999V91.1H382.8C392.8 91.1 411.9 90.6 411.9 69C411.9 47.2 393 46.5999 382.5 46.5999H357.7Z" fill="#36A71C"/>
<path d="M484.6 7H635.3V48.8H545V77.1H629.4V118.3H545V156.1H643.4V197.3H484.6V7Z" fill="#36A71C"/>
<path d="M829.7 148.3C824.8 157.5 820.3 166.1 811.1 175.3C791.7 194.4 764.5 203.3 737.2 203.3C669.3 203.3 638.5 152.1 638.5 103.3C638.5 52 672.8 0 737.2 0C766 0 793.5 10.2 813.5 30.7C821.6 39.1 825.4 45.5 829.4 53.1L779 78.2C774.1 66.9 765 46.7 739.6 46.7C726.4 46.7 718 52.9 714 56.9C699.7 70.6 699.7 92.2 699.7 99.8C699.7 128.1 710.2 154.8 739.9 154.8C767.9 154.8 776.3 130 778.4 123.5L829.7 148.3Z" fill="#36A71C"/>
<path d="M881.7 7H950.2L1021.4 197.3H956.7L948.3 170.9H882L873.6 197.3H808.9L881.7 7ZM915.6 61.2L894.8 128.3H935.8L915.6 61.2Z" fill="#36A71C"/>
</svg>
